<svg width="166" height="192" viewBox="0 0 166 192" fill="none" xmlns="http://www.w3.org/2000/svg">
<path d="M82.9606 0L165.921 52V140L82.9606 192L0 140V52L82.9606 0Z" fill="white"/>
<path d="M155.181 134.5V130.883C154.074 132.073 152.913 133.282 151.698 134.5C149.502 136.703 147.133 138.934 144.602 141.131L155.181 134.5Z" fill="#516372"/>
<path d="M83.2852 138.944C85.4203 146.245 88.6693 152.371 92.2279 157.476C112.301 157.178 129.737 146.086 142.523 134.5C147.48 130.008 151.739 125.442 155.181 121.402V105.183V88.9648C152.006 94.2671 148.035 99.7966 143.078 105.183C139.938 108.595 136.403 111.95 132.424 115.154C118.615 126.267 104.145 131.726 92.7733 134.4C92.6297 134.434 92.4866 134.467 92.344 134.5C88.7223 135.335 85.4241 135.888 82.5735 136.252C82.7901 137.15 83.0068 138.047 83.2852 138.944Z" fill="#516372"/>
<path d="M116.498 158.746C110.367 161.173 103.825 162.861 96.9329 163.448C98.4721 165.178 100.017 166.74 101.517 168.137L116.498 158.746Z" fill="#516372"/>
<path d="M53.3018 78.958C50.7036 85.1186 47.6937 94.1604 46.4413 105.183C46.3885 105.648 46.3389 106.116 46.2925 106.587C45.6044 113.583 45.6392 121.339 46.9273 129.634C47.1841 131.291 47.4819 132.913 47.8164 134.5C50.6138 147.77 55.9771 158.558 61.3878 166.71L82.5906 180L96.0674 171.553C89.0519 164.736 81.3999 154.658 77.3135 140.74C76.6908 138.626 76.1861 136.544 75.7852 134.5C73.5528 123.12 74.5392 112.94 76.2946 105.183C76.9967 102.081 77.8218 99.3667 78.6131 97.1184C74.0344 91.7352 65.7101 83.9389 53.3018 78.958Z" fill="#516372"/>
<path d="M44.792 76.1402C37.3973 74.3458 30.4659 74.0674 24.2772 74.6242C18.8834 84.2298 16.7289 94.8024 16.4905 105.183C16.2529 115.528 17.9182 125.683 20.1769 134.5C20.8768 137.232 21.6338 139.836 22.4087 142.278L50.2008 159.698C46.5825 152.525 43.4194 144.112 41.5243 134.5C41.2696 133.208 41.0378 131.895 40.8309 130.56L40.8313 130.591C39.4054 121.415 39.4147 112.859 40.2315 105.183C41.4886 93.3691 44.6586 83.6393 47.4533 76.9445C47.0735 76.8398 46.7047 76.7184 46.3354 76.5968C45.832 76.4312 45.3275 76.2651 44.792 76.1402Z" fill="#516372"/>
<path d="M10 134.5L14.3412 137.221C14.1032 136.328 13.8708 135.421 13.6452 134.5C11.4731 125.634 9.93819 115.544 10.1918 105.183C10.4331 95.3305 12.2917 85.2325 16.7577 75.7091C14.3308 76.2108 12.0701 76.8141 10 77.4629V105.183V134.5Z" fill="#516372"/>
<path d="M111.784 80.2549C105.071 71.345 91.9189 57.4549 71.0318 49.3492C56.8162 43.8461 43.4501 42.7194 32.6903 43.2776L10 57.5V70.994C19.4328 68.2931 32.062 66.6675 46.246 70.1083H46.2136C65.0898 74.7173 77.2506 85.9474 83.3775 93.094C90.3722 91.7946 101.325 88.4842 111.784 80.2549Z" fill="#516372"/>
<path d="M118.438 74.2552C123.698 68.7482 127.38 62.8702 130.011 57.2395C116.053 33.7524 87.0789 24.5262 68.3219 20.9436L42.4923 37.1337C51.8029 37.5834 62.2931 39.3866 73.2609 43.6266C95.2907 52.1346 109.216 66.7373 116.457 76.2352C116.672 76.0202 116.891 75.8052 117.11 75.5891L117.111 75.5878C117.555 75.1513 118.003 74.7101 118.438 74.2552Z" fill="#516372"/>
<path d="M82.1719 12.875C81.8423 12.875 81.5131 12.8771 81.1845 12.8813L76.0163 16.1208C94.4303 20.4237 118.628 29.7963 132.826 50.1539C133.476 48.1959 134.008 46.3017 134.442 44.5006L84.0187 12.8952C83.4047 12.8817 82.7891 12.875 82.1719 12.875Z" fill="#516372"/>
<path d="M81.3682 130.19C92.4445 128.828 111.073 124.404 128.525 110.358C130.474 108.792 132.309 107.187 134.036 105.554C134.167 105.431 134.297 105.307 134.427 105.183C144.757 95.3066 151.202 84.4859 155.181 75.5257V57.5L139.985 47.9748C137.499 57.2537 132.584 68.4248 122.957 78.4943C109.526 92.5396 93.7147 97.4587 84.4626 99.1912C83.8583 100.908 83.2357 102.919 82.6761 105.183C81.0575 111.731 79.9656 120.397 81.3682 130.19Z" fill="#516372"/>
<path d="M40.8313 130.591L40.8309 130.56C41.0378 131.895 41.2696 133.208 41.5243 134.5H47.8164C47.4819 132.913 47.1841 131.291 46.9273 129.634C45.6392 121.339 45.6044 113.583 46.2925 106.587C46.3389 106.116 46.3885 105.648 46.4413 105.183H40.2315C39.4147 112.859 39.4054 121.415 40.8313 130.591Z" fill="#516372"/>
<path d="M16.4905 105.183H10.1918C9.93819 115.544 11.4731 125.634 13.6452 134.5H20.1769C17.9182 125.683 16.2529 115.528 16.4905 105.183Z" fill="#516372"/>
<path d="M128.525 110.358C111.073 124.404 92.4445 128.828 81.3682 130.19C79.9656 120.397 81.0575 111.731 82.6761 105.183H76.2946C74.5392 112.94 73.5528 123.12 75.7852 134.5H92.344C92.4866 134.467 92.6297 134.434 92.7733 134.4C104.145 131.726 118.615 126.267 132.424 115.154C136.403 111.95 139.938 108.595 143.078 105.183H134.427C134.297 105.307 134.167 105.431 134.036 105.554C132.309 107.187 130.474 108.792 128.525 110.358Z" fill="#516372"/>
<path fill-rule="evenodd" clip-rule="evenodd" d="M82.5906 12L84.0187 12.8952C83.4047 12.8817 82.7891 12.875 82.1719 12.875C81.8423 12.875 81.5131 12.8771 81.1845 12.8813L82.5906 12ZM132.826 50.1539C133.476 48.1959 134.008 46.3017 134.442 44.5006L139.985 47.9748C137.499 57.2537 132.584 68.4248 122.957 78.4943C109.526 92.5396 93.7147 97.4587 84.4626 99.1912C83.8583 100.908 83.2357 102.919 82.6761 105.183H76.2946C76.9967 102.081 77.8218 99.3667 78.6131 97.1184C74.0344 91.7352 65.7101 83.9389 53.3018 78.958C50.7036 85.1186 47.6937 94.1604 46.4413 105.183H40.2315C41.4886 93.3691 44.6586 83.6393 47.4533 76.9445C47.0735 76.8398 46.7047 76.7184 46.3354 76.5968C45.832 76.4312 45.3275 76.2651 44.792 76.1402C37.3973 74.3458 30.4659 74.0674 24.2772 74.6242C18.8834 84.2298 16.7289 94.8024 16.4905 105.183H10.1918C10.4331 95.3305 12.2917 85.2325 16.7577 75.7091C14.3308 76.2108 12.0701 76.8141 10 77.4629V70.994C19.4328 68.2931 32.062 66.6675 46.246 70.1083H46.2136C65.0898 74.7173 77.2506 85.9474 83.3775 93.094C90.3722 91.7946 101.325 88.4842 111.784 80.2549C105.071 71.345 91.9189 57.4549 71.0318 49.3492C56.8162 43.8461 43.4501 42.7194 32.6903 43.2776L42.4923 37.1337C51.8029 37.5834 62.2931 39.3866 73.2609 43.6266C95.2907 52.1346 109.216 66.7373 116.457 76.2352C116.672 76.0202 116.891 75.8052 117.11 75.5891L117.111 75.5878C117.555 75.1513 118.003 74.7101 118.438 74.2552C123.698 68.7482 127.38 62.8702 130.011 57.2395C116.053 33.7524 87.0789 24.5262 68.3219 20.9436L76.0163 16.1208C94.4303 20.4237 118.628 29.7963 132.826 50.1539ZM143.078 105.183H134.427C144.757 95.3066 151.202 84.4859 155.181 75.5257V88.9648C152.006 94.2671 148.035 99.7966 143.078 105.183ZM75.7852 134.5H92.344C88.7223 135.335 85.4241 135.888 82.5735 136.252C82.7901 137.15 83.0068 138.047 83.2852 138.944C85.4203 146.245 88.6693 152.371 92.2279 157.476C112.301 157.178 129.737 146.086 142.523 134.5H151.698C149.502 136.703 147.133 138.934 144.602 141.131L116.498 158.746C110.367 161.173 103.825 162.861 96.9329 163.448C98.4721 165.178 100.017 166.74 101.517 168.137L96.0674 171.553C89.0519 164.736 81.3999 154.658 77.3135 140.74C76.6908 138.626 76.1861 136.544 75.7852 134.5ZM41.5243 134.5C43.4194 144.112 46.5825 152.525 50.2008 159.698L61.3878 166.71C55.9771 158.558 50.6138 147.77 47.8164 134.5H41.5243ZM13.6452 134.5H20.1769C20.8768 137.232 21.6338 139.836 22.4087 142.278L14.3412 137.221C14.1032 136.328 13.8708 135.421 13.6452 134.5Z" fill="white"/>
<path d="M155.181 130.883V121.402C151.739 125.442 147.48 130.008 142.523 134.5H151.698C152.913 133.282 154.074 132.073 155.181 130.883Z" fill="#516372"/>
<path d="M26 125.296V115.166C26.5285 114.212 27.5415 113.735 29.0389 113.735H31.3512L32.5183 114.593V115.981H29.6335C29.1344 115.981 28.782 116.106 28.5765 116.355V125.296H26Z" fill="white"/>
<path d="M33.5 114.131L33.7642 113.735H35.9884L38.8952 123.05H39.2255L42.1323 113.735H44.3565L44.6207 114.131L41.0092 125.296H37.1335L33.5 114.131Z" fill="white"/>
<path d="M46.5138 121.816V117.214C46.5138 114.894 47.6736 113.735 49.9932 113.735H53.0762C55.3811 113.735 56.5335 114.894 56.5335 117.214V121.816C56.5335 124.136 55.3811 125.296 53.0762 125.296H49.9932C47.6736 125.296 46.5138 124.136 46.5138 121.816ZM49.0903 122.037C49.0903 122.712 49.428 123.05 50.1033 123.05H52.9441C53.6194 123.05 53.957 122.712 53.957 122.037V116.994C53.957 116.318 53.6194 115.981 52.9441 115.981H50.1033C49.428 115.981 49.0903 116.318 49.0903 116.994V122.037Z" fill="white"/>
<path d="M59.5695 121.464V109H62.146V121.728C62.146 122.683 62.6305 123.196 63.5994 123.27V125.494C60.9128 125.494 59.5695 124.151 59.5695 121.464Z" fill="white"/>
<path d="M65.9996 121.464V109H68.5761V121.728C68.5761 122.683 69.0605 123.196 70.0295 123.27V125.494C67.3429 125.494 65.9996 124.151 65.9996 121.464Z" fill="white"/>
<path d="M72.3415 121.816V117.214C72.3415 114.894 73.5013 113.735 75.8209 113.735H78.6837C80.9886 113.735 82.141 114.894 82.141 117.214V120.473H74.918V122.037C74.918 122.712 75.2557 123.05 75.931 123.05H81.7006V124.437L80.5335 125.296H75.8209C73.5013 125.296 72.3415 124.136 72.3415 121.816ZM74.918 118.469H79.5645V116.994C79.5645 116.318 79.2269 115.981 78.5515 115.981H75.931C75.2557 115.981 74.918 116.318 74.918 116.994V118.469Z" fill="white"/>
<path d="M84.0371 114.131L84.3013 113.735H86.5255L89.4323 123.05H89.7626L92.6694 113.735H94.8936L95.1578 114.131L90.1149 129.7H87.8908L87.6265 129.304L89.0139 125.296H87.6706L84.0371 114.131Z" fill="white"/>
<path d="M97.051 121.816V117.214C97.051 114.894 98.2107 113.735 100.53 113.735H104.274V109H106.85V125.296H100.53C98.2107 125.296 97.051 124.136 97.051 121.816ZM99.6274 122.037C99.6274 122.712 99.9651 123.05 100.64 123.05H104.274V115.981H100.64C99.9651 115.981 99.6274 116.318 99.6274 116.994V122.037Z" fill="white"/>
<path d="M113.014 125.296C110.695 125.296 109.535 124.151 109.535 121.86C109.535 119.57 110.695 118.425 113.014 118.425H116.406V116.994C116.406 116.318 116.068 115.981 115.393 115.981H110.724V114.593L111.869 113.735H115.525C117.83 113.735 118.982 114.894 118.982 117.214V125.296H113.014ZM112.112 122.037C112.112 122.712 112.449 123.05 113.125 123.05H116.406V120.429H113.125C112.449 120.429 112.112 120.759 112.112 121.42V122.037Z" fill="white"/>
<path d="M122.107 121.816V110.101H124.683V113.735H128.625V115.981H124.683V122.037C124.683 122.712 125.021 123.05 125.696 123.05H128.845V124.437L127.678 125.296H125.586C123.266 125.296 122.107 124.136 122.107 121.816Z" fill="white"/>
<path d="M134.154 125.296C131.834 125.296 130.675 124.151 130.675 121.86C130.675 119.57 131.834 118.425 134.154 118.425H137.545V116.994C137.545 116.318 137.208 115.981 136.532 115.981H131.864V114.593L133.009 113.735H136.664C138.969 113.735 140.122 114.894 140.122 117.214V125.296H134.154ZM133.251 122.037C133.251 122.712 133.589 123.05 134.264 123.05H137.545V120.429H134.264C133.589 120.429 133.251 120.759 133.251 121.42V122.037Z" fill="white"/>
<path d="M91.4026 181.936L89.7998 179.417L90.1981 179.164L90.6638 179.896L91.2458 179.526C91.6021 179.299 91.8944 179.365 92.1225 179.723L92.9174 180.973L92.5191 181.226L91.7026 179.943C91.6361 179.838 91.5507 179.819 91.4463 179.886L90.8847 180.243L91.8008 181.683L91.4026 181.936ZM93.0579 180.128L91.9057 178.317L92.304 178.063L92.6613 178.625L93.2706 178.237L93.4916 178.584L92.8822 178.972L93.4778 179.908C93.5443 180.013 93.6297 180.032 93.7341 179.965L94.2208 179.656L94.3573 179.87L94.2613 180.118L93.938 180.323C93.5794 180.551 93.2861 180.486 93.0579 180.128ZM94.4641 179.233L93.3118 177.422L93.7101 177.169L94.0675 177.73L94.6768 177.343L94.8977 177.69L94.2884 178.077L94.884 179.014C94.9504 179.118 95.0358 179.137 95.1402 179.071L95.627 178.761L95.7635 178.975L95.6675 179.223L95.3441 179.429C94.9856 179.657 94.6922 179.592 94.4641 179.233ZM96.6592 179.548L95.089 177.08L96.0694 176.457C96.4257 176.23 96.7179 176.296 96.946 176.654L97.3987 177.366C97.6268 177.724 97.5627 178.017 97.2064 178.244L96.6243 178.614L97.0575 179.295L96.6592 179.548ZM96.4034 178.267L96.9651 177.909C97.0695 177.843 97.0885 177.758 97.0221 177.653L96.5261 176.874C96.4597 176.769 96.3742 176.75 96.2699 176.817L95.7082 177.174L96.4034 178.267ZM98.0748 177.505L97.9384 177.29L98.7247 176.79C98.8291 176.723 98.8459 176.635 98.7752 176.523C98.7015 176.408 98.6165 176.369 98.5202 176.408L98.0999 176.59C97.78 176.723 97.5319 176.651 97.3558 176.375C97.1334 176.025 97.2015 175.736 97.56 175.508L98.1013 175.164L98.3662 175.182L98.5026 175.396L97.798 175.844C97.6913 175.912 97.6734 176.002 97.7441 176.113C97.8149 176.224 97.9007 176.259 98.0016 176.217L98.4218 176.036C98.7381 175.901 98.9857 175.975 99.1648 176.256C99.3886 176.608 99.3201 176.899 98.9592 177.128L98.3397 177.523L98.0748 177.505ZM99.929 176.511L99.6474 176.069L100.09 175.787L100.372 176.23L99.929 176.511ZM99.0756 175.17L98.7941 174.728L99.2366 174.446L99.5182 174.889L99.0756 175.17ZM100.721 176.099L100.023 172.889L100.434 172.8L101.136 176.007L100.721 176.099ZM101.944 175.32L101.246 172.111L101.657 172.021L102.359 175.228L101.944 175.32ZM103.856 174.013C103.497 174.241 103.205 174.178 102.98 173.824C102.755 173.47 102.821 173.179 103.18 172.951L103.704 172.617L103.563 172.396C103.497 172.292 103.412 172.273 103.307 172.339L102.585 172.798L102.449 172.584L102.542 172.339L103.107 171.979C103.463 171.752 103.755 171.818 103.983 172.177L104.778 173.426L103.856 174.013ZM103.396 173.598C103.462 173.702 103.547 173.721 103.652 173.655L104.159 173.332L103.901 172.927L103.394 173.25C103.29 173.316 103.27 173.401 103.335 173.503L103.396 173.598ZM104 171.497L104.005 171.408L104.339 171.195L105.558 172.442L105.592 172.421L105.04 170.749L105.486 170.465L106.766 171.674L106.8 171.652L106.19 170.017L106.521 169.807L106.604 169.84L107.324 171.806L106.715 172.194L105.56 171.078L106.082 172.597L105.479 172.98L104 171.497ZM107.664 170.834L107.212 170.123C106.984 169.764 107.049 169.471 107.407 169.243L107.884 168.939C108.24 168.713 108.532 168.779 108.761 169.137L109.213 169.849C109.441 170.207 109.377 170.5 109.021 170.727L108.544 171.03C108.186 171.258 107.893 171.193 107.664 170.834ZM108.084 170.615C108.151 170.719 108.236 170.738 108.341 170.672L108.78 170.392C108.884 170.326 108.903 170.241 108.837 170.136L108.341 169.357C108.274 169.252 108.189 169.233 108.084 169.3L107.645 169.579C107.541 169.645 107.522 169.731 107.588 169.835L108.084 170.615ZM109.889 169.988L109.753 169.773L110.539 169.273C110.644 169.206 110.66 169.118 110.59 169.006C110.516 168.891 110.431 168.852 110.335 168.891L109.914 169.073C109.594 169.206 109.346 169.134 109.17 168.857C108.948 168.508 109.016 168.219 109.375 167.991L109.916 167.647L110.181 167.665L110.317 167.879L109.612 168.327C109.506 168.395 109.488 168.485 109.559 168.596C109.629 168.707 109.715 168.742 109.816 168.7L110.236 168.519C110.553 168.384 110.8 168.458 110.979 168.739C111.203 169.091 111.135 169.382 110.774 169.611L110.154 170.006L109.889 169.988ZM111.388 168.465L110.935 167.754C110.707 167.395 110.772 167.102 111.131 166.874L111.607 166.571C111.963 166.344 112.256 166.41 112.484 166.768L112.936 167.48C113.165 167.838 113.101 168.131 112.744 168.358L112.268 168.661C111.909 168.889 111.616 168.824 111.388 168.465ZM111.808 168.246C111.874 168.35 111.959 168.369 112.064 168.303L112.503 168.023C112.607 167.957 112.626 167.872 112.56 167.767L112.064 166.988C111.997 166.883 111.912 166.864 111.808 166.931L111.369 167.21C111.264 167.277 111.245 167.362 111.312 167.466L111.808 168.246ZM113.382 167.196L112.929 166.485C112.701 166.126 112.766 165.833 113.125 165.605L114.105 164.981L115.333 166.911C115.561 167.27 115.496 167.563 115.138 167.791L114.488 168.205L114.223 168.187L114.086 167.972L114.9 167.455C115.004 167.388 115.023 167.303 114.957 167.199L114.844 167.022L114.262 167.392C113.903 167.62 113.61 167.555 113.382 167.196ZM113.802 166.977C113.868 167.081 113.954 167.1 114.058 167.034L114.623 166.674L113.928 165.582L113.363 165.941C113.258 166.008 113.239 166.093 113.306 166.197L113.802 166.977ZM116.185 166.168C115.827 166.396 115.535 166.333 115.31 165.979C115.084 165.625 115.151 165.334 115.51 165.106L116.034 164.773L115.893 164.551C115.827 164.447 115.741 164.428 115.637 164.494L114.915 164.954L114.779 164.739L114.871 164.494L115.436 164.134C115.793 163.907 116.085 163.973 116.313 164.332L117.108 165.581L116.185 166.168ZM115.725 165.753C115.792 165.858 115.877 165.877 115.982 165.81L116.489 165.487L116.231 165.082L115.724 165.405C115.619 165.471 115.6 165.556 115.665 165.658L115.725 165.753ZM117.591 165.274L117.309 164.831L117.752 164.55L118.033 164.992L117.591 165.274ZM118.149 164.163L117.696 163.452C117.468 163.093 117.533 162.8 117.892 162.572L118.872 161.948L120.1 163.878C120.328 164.237 120.263 164.53 119.905 164.758L119.255 165.172L118.99 165.154L118.853 164.939L119.667 164.422C119.771 164.355 119.79 164.27 119.724 164.166L119.611 163.989L119.029 164.359C118.67 164.587 118.377 164.522 118.149 164.163ZM118.569 163.944C118.635 164.048 118.721 164.067 118.825 164.001L119.39 163.641L118.695 162.549L118.13 162.908C118.025 162.975 118.007 163.06 118.073 163.164L118.569 163.944ZM119.166 161.326L118.908 160.921L119.326 160.655L119.584 161.06L119.166 161.326ZM120.51 163.417L119.373 161.63L119.771 161.376L120.908 163.163L120.51 163.417ZM121.062 162.31L119.909 160.499L120.308 160.246L120.665 160.807L121.274 160.42L121.495 160.767L120.886 161.155L121.482 162.091C121.548 162.195 121.633 162.214 121.738 162.148L122.225 161.838L122.361 162.052L122.265 162.3L121.942 162.506C121.583 162.734 121.29 162.669 121.062 162.31ZM122.824 161.945L121.221 159.426L121.619 159.172L122.085 159.904L122.667 159.534C123.023 159.307 123.315 159.373 123.544 159.731L124.338 160.981L123.94 161.234L123.124 159.951C123.057 159.846 122.972 159.827 122.867 159.894L122.306 160.251L123.222 161.691L122.824 161.945ZM124.479 160.136L123.684 158.886L124.082 158.633L124.899 159.916C124.965 160.021 125.051 160.04 125.155 159.973L125.717 159.616L124.801 158.176L125.199 157.923L126.336 159.71L125.359 160.331C125 160.56 124.707 160.494 124.479 160.136ZM126.846 159.385L125.243 156.866L125.641 156.613L126.107 157.345L126.689 156.974C127.046 156.748 127.338 156.814 127.566 157.172L128.019 157.884C128.247 158.242 128.183 158.535 127.826 158.762L126.846 159.385ZM127.023 158.785L127.585 158.427C127.689 158.361 127.708 158.276 127.642 158.171L127.146 157.392C127.08 157.287 126.994 157.268 126.89 157.335L126.328 157.692L127.023 158.785ZM128.83 158.123L128.549 157.68L128.991 157.399L129.273 157.841L128.83 158.123ZM128.424 155.436L128.166 155.031L128.585 154.764L128.842 155.169L128.424 155.436ZM129.768 157.526L128.631 155.739L129.029 155.486L130.166 157.273L129.768 157.526ZM130.306 156.428L129.853 155.717C129.625 155.358 129.69 155.065 130.049 154.837L130.526 154.534C130.882 154.307 131.174 154.373 131.402 154.731L131.855 155.443C132.083 155.801 132.019 156.094 131.663 156.321L131.186 156.624C130.828 156.852 130.534 156.787 130.306 156.428ZM130.726 156.209C130.792 156.313 130.878 156.332 130.982 156.266L131.421 155.986C131.526 155.92 131.545 155.835 131.478 155.73L130.982 154.951C130.916 154.846 130.83 154.827 130.726 154.894L130.287 155.173C130.183 155.24 130.164 155.325 130.23 155.429L130.726 156.209ZM132.534 155.857L131.836 152.648L132.247 152.558L132.949 155.765L132.534 155.857ZM134.059 154.796L133.063 153.23C133.051 153.03 133.161 152.857 133.392 152.71L133.749 152.482L134.014 152.5L134.151 152.715L133.705 152.998C133.628 153.048 133.585 153.102 133.578 153.16L134.458 154.542L134.059 154.796ZM134.121 152.332L134.122 152.245L134.466 152.026L135.832 153.18L135.883 153.148L135.416 151.422L135.76 151.203L135.84 151.239L136.379 153.32L135.78 153.701L134.121 152.332ZM136.888 152.24L136.435 151.529C136.207 151.17 136.273 150.877 136.631 150.649L137.108 150.346C137.464 150.119 137.756 150.185 137.984 150.543L138.437 151.255C138.665 151.613 138.601 151.906 138.245 152.133L137.768 152.436C137.41 152.664 137.116 152.599 136.888 152.24ZM137.308 152.021C137.374 152.125 137.46 152.144 137.564 152.078L138.003 151.799C138.108 151.732 138.127 151.647 138.06 151.542L137.564 150.763C137.498 150.658 137.413 150.639 137.308 150.706L136.869 150.985C136.765 151.052 136.746 151.137 136.812 151.241L137.308 152.021ZM138.872 150.902L137.646 148.975L138.044 148.722L139.296 150.689C139.39 150.837 139.515 150.869 139.672 150.785L139.891 151.128C139.476 151.393 139.136 151.317 138.872 150.902ZM139.866 150.269L138.64 148.343L139.038 148.089L140.29 150.057C140.384 150.204 140.509 150.236 140.666 150.152L140.885 150.496C140.47 150.76 140.13 150.685 139.866 150.269ZM140.881 149.7L140.428 148.989C140.2 148.63 140.265 148.337 140.624 148.109L141.066 147.827C141.422 147.6 141.715 147.666 141.943 148.025L142.263 148.529L141.147 149.239L141.301 149.481C141.367 149.585 141.452 149.604 141.557 149.538L142.449 148.97L142.585 149.185L142.489 149.432L141.761 149.896C141.402 150.124 141.109 150.059 140.881 149.7ZM140.95 148.929L141.668 148.472L141.523 148.244C141.456 148.14 141.371 148.121 141.267 148.187L140.861 148.445C140.757 148.511 140.738 148.597 140.805 148.701L140.95 148.929ZM141.933 147.362L141.934 147.275L142.278 147.056L143.644 148.21L143.695 148.177L143.228 146.452L143.572 146.233L143.652 146.268L144.403 149.171L144.06 149.389L143.98 149.354L143.8 148.598L143.592 148.73L141.933 147.362ZM144.7 147.27L144.248 146.558C144.019 146.2 144.085 145.907 144.443 145.678L145.022 145.31L144.556 144.578L144.954 144.325L146.557 146.844L145.58 147.465C145.222 147.694 144.928 147.628 144.7 147.27ZM145.12 147.05C145.187 147.155 145.272 147.174 145.376 147.107L145.938 146.75L145.243 145.657L144.681 146.015C144.577 146.081 144.558 146.167 144.624 146.271L145.12 147.05ZM147.51 146.238C147.151 146.466 146.86 146.403 146.634 146.049C146.409 145.695 146.476 145.404 146.834 145.176L147.359 144.842L147.218 144.621C147.151 144.516 147.066 144.497 146.962 144.564L146.24 145.023L146.103 144.809L146.196 144.563L146.761 144.204C147.117 143.977 147.41 144.043 147.638 144.401L148.433 145.651L147.51 146.238ZM147.05 145.823C147.116 145.927 147.202 145.946 147.306 145.88L147.813 145.557L147.556 145.152L147.048 145.475C146.944 145.541 146.924 145.625 146.989 145.727L147.05 145.823ZM148.573 144.806L147.421 142.995L147.819 142.741L148.177 143.303L148.786 142.915L149.007 143.262L148.398 143.65L148.993 144.586C149.06 144.691 149.145 144.71 149.249 144.643L149.736 144.333L149.873 144.548L149.777 144.795L149.453 145.001C149.095 145.229 148.801 145.164 148.573 144.806ZM150.778 144.159C150.419 144.387 150.127 144.324 149.902 143.97C149.677 143.616 149.743 143.325 150.102 143.096L150.626 142.763L150.485 142.542C150.419 142.437 150.334 142.418 150.229 142.485L149.508 142.944L149.371 142.729L149.464 142.484L150.029 142.124C150.385 141.898 150.677 141.964 150.905 142.322L151.7 143.572L150.778 144.159ZM150.318 143.744C150.384 143.848 150.47 143.867 150.574 143.8L151.081 143.478L150.823 143.073L150.316 143.395C150.212 143.462 150.192 143.546 150.257 143.648L150.318 143.744ZM152.051 143.439L151.353 140.23L151.764 140.14L152.466 143.348L152.051 143.439Z" fill="#516372"/>
</svg>
